# xmcd
#
# Track frame offsets:
# 150
# 18295
# 20943
# 38026
# 52916
# 75348
# 91583
# 105540
# 120336
# 135625
#
# Disc length: 1921 seconds
#
#
# Revision: 0
# Processed by: cddbd v1.4PL0 Copyright (c) Steve Scherf et al.
# Submitted via: FreeRIP 2.12 
#
DISCID=68077f0a
DTITLE=Various Artist - An American Collection
DYEAR=2002
DGENRE=country
TTITLE0=Presidential Speech Montage
TTITLE1=The Pledge of Allegiance
TTITLE2=America. the Beautiful
TTITLE3=God Bless the USA
TTITLE4=Where Were Uyou
TTITLE5=I will Remember You
TTITLE6=Amazing Grace
TTITLE7=Made in the USA
TTITLE8=Independence Day
TTITLE9=The Star Spangled Banner
EXTD=
EXTT0=
EXTT1=
EXTT2=
EXTT3=
EXTT4=
EXTT5=
EXTT6=
EXTT7=
EXTT8=
EXTT9=
PLAYORDER=
